<svg width="27" height="27" viewBox="0 0 27 27" fill="none" xmlns="http://www.w3.org/2000/svg">
<path fill-rule="evenodd" clip-rule="evenodd" d="M6.15262 17.1214C6.231 17.0428 6.32411 16.9805 6.42662 16.9379C6.52913 16.8954 6.63902 16.8735 6.75 16.8735C6.86098 16.8735 6.97087 16.8954 7.07338 16.9379C7.17589 16.9805 7.269 17.0428 7.34738 17.1214L13.5 23.2757L19.6526 17.1214C19.8111 16.963 20.0259 16.8739 20.25 16.8739C20.4741 16.8739 20.6889 16.963 20.8474 17.1214C21.0058 17.2798 21.0948 17.4947 21.0948 17.7188C21.0948 17.9428 21.0058 18.1577 20.8474 18.3161L14.0974 25.0661C14.019 25.1447 13.9259 25.2071 13.8234 25.2496C13.7209 25.2921 13.611 25.314 13.5 25.314C13.389 25.314 13.2791 25.2921 13.1766 25.2496C13.0741 25.2071 12.981 25.1447 12.9026 25.0661L6.15262 18.3161C6.07405 18.2378 6.01171 18.1446 5.96917 18.0421C5.92664 17.9396 5.90474 17.8297 5.90474 17.7188C5.90474 17.6078 5.92664 17.4979 5.96917 17.3954C6.01171 17.2929 6.07405 17.1998 6.15262 17.1214V17.1214ZM6.15262 9.87864C6.231 9.95721 6.32411 10.0196 6.42662 10.0621C6.52913 10.1046 6.63902 10.1265 6.75 10.1265C6.86098 10.1265 6.97087 10.1046 7.07338 10.0621C7.17589 10.0196 7.269 9.95721 7.34738 9.87864L13.5 3.72433L19.6526 9.87864C19.8111 10.0371 20.0259 10.1261 20.25 10.1261C20.4741 10.1261 20.6889 10.0371 20.8474 9.87864C21.0058 9.7202 21.0948 9.50532 21.0948 9.28126C21.0948 9.0572 21.0058 8.84232 20.8474 8.68389L14.0974 1.93389C14.019 1.85531 13.9259 1.79297 13.8234 1.75044C13.7209 1.7079 13.611 1.686 13.5 1.686C13.389 1.686 13.2791 1.7079 13.1766 1.75044C13.0741 1.79297 12.981 1.85531 12.9026 1.93389L6.15262 8.68389C6.07405 8.76226 6.01171 8.85537 5.96917 8.95788C5.92664 9.06039 5.90474 9.17028 5.90474 9.28126C5.90474 9.39224 5.92664 9.50214 5.96917 9.60464C6.01171 9.70715 6.07405 9.80026 6.15262 9.87864V9.87864ZM1.6875 13.5C1.6875 13.2762 1.77639 13.0616 1.93463 12.9034C2.09286 12.7452 2.30747 12.6563 2.53125 12.6563H24.4688C24.6925 12.6563 24.9071 12.7452 25.0654 12.9034C25.2236 13.0616 25.3125 13.2762 25.3125 13.5C25.3125 13.7238 25.2236 13.9384 25.0654 14.0966C24.9071 14.2549 24.6925 14.3438 24.4688 14.3438H2.53125C2.30747 14.3438 2.09286 14.2549 1.93463 14.0966C1.77639 13.9384 1.6875 13.7238 1.6875 13.5V13.5Z" fill="#374C69"/>
</svg>
