<svg width="21" height="21" viewBox="0 0 21 21" fill="none" xmlns="http://www.w3.org/2000/svg">
<path d="M20.5091 4.75912L16.2409 0.490875C16.044 0.294 15.8025 0.149625 15.54 0.0708749V0H0.84C0.375375 0 0 0.375375 0 0.84V20.16C0 20.6246 0.375375 21 0.84 21H20.16C20.6246 21 21 20.6246 21 20.16V5.94562C21 5.49937 20.8241 5.07412 20.5091 4.75912ZM7.14 1.89H13.86V4.62H7.14V1.89ZM19.11 19.11H1.89V1.89H5.46V5.46C5.46 5.92462 5.83537 6.3 6.3 6.3H14.7C15.1646 6.3 15.54 5.92462 15.54 5.46V2.46225L19.11 6.03225V19.11ZM10.5 8.6625C8.41313 8.6625 6.72 10.3556 6.72 12.4425C6.72 14.5294 8.41313 16.2225 10.5 16.2225C12.5869 16.2225 14.28 14.5294 14.28 12.4425C14.28 10.3556 12.5869 8.6625 10.5 8.6625ZM10.5 14.5425C9.33975 14.5425 8.4 13.6027 8.4 12.4425C8.4 11.2822 9.33975 10.3425 10.5 10.3425C11.6602 10.3425 12.6 11.2822 12.6 12.4425C12.6 13.6027 11.6602 14.5425 10.5 14.5425Z" fill="#374C69"/>
</svg>
